# xmcd CD database file
#
# Track frame offsets:
#	150
#	23681
#	44935
#	67628
#	90418
#	112932
#	137084
#	160101
#	180066
#	203523
#	224368
#	249055
#	275282
#	298431
#	318089
#	336727
#
# Disc length: 4658 seconds
#
# Revision: 0
# Processed by: cddbd v1.5.1PL0 Copyright (c) Steve Scherf et al.
# Submitted via: freeDB plugin v1.0
#
DISCID=db123010
DTITLE=ＭＡＮＹ - ＳＩＮＧＬＥ　ＣＤ８
DYEAR=1900
DGENRE=Rock
TTITLE0=空の下で
TTITLE1=長い間
TTITLE2=足音
TTITLE3=彼女と私の事情
TTITLE4=ニシヘヒガシヘ
TTITLE5=ＬＯＶＥ　ＡＦＦＡＩＲ〜秘密のデート〜
TTITLE6=散歩道
TTITLE7=Ｉ　ＷＡＮＮＡ　ＧＯ
TTITLE8=Ｔｉｍｅ　ｇｏｅｓ　ｂｙ
TTITLE9=Ｕｎｉｔｅ！　Ｔｈｅ　Ｎｉｇｈｔ！
TTITLE10=ｍｙ　ｇｒａｄｕａｔｉｏｎ
TTITLE11=つつみ込むように
TTITLE12=ミルクティー
TTITLE13=大丈夫だよ
TTITLE14=風
TTITLE15=愛のしるし
EXTD=
EXTT0=
EXTT1=
EXTT2=
EXTT3=
EXTT4=
EXTT5=
EXTT6=
EXTT7=
EXTT8=
EXTT9=
EXTT10=
EXTT11=
EXTT12=
EXTT13=
EXTT14=
EXTT15=
PLAYORDER=
